# xmcd
# 
# Track frame offsets:
#     150
#     16268
#     59882
#     75320
#     91188
# 
# Disc length: 1426
# 
# Revision: 0
# Processed by: cddbd v1.5.2PL0 Copyright (c) Steve Scherf et al.
# Submitted via: fre:ac v1.1beta1pre2
# 
DISCID=31059005
DTITLE=Various Artist - PETIT IDOLM@STER Twelve Seasons! Vol.05
DYEAR=2013
DGENRE=Pop
TTITLE0=双海亜美/真美(下田麻美) - ドキッ♥ラブアトラクション
TTITLE1=双海亜美/真美(下田麻美), こあみ/こまみ(下田麻美) - 朝の連続ぷちドラマ みんなでこまーしゃる -亜美・真美とこあみ・こまみへん-
TTITLE2=双海亜美/真美(下田麻美) - ら♪ら♪ら♪わんだぁらんど
TTITLE3=双海亜美/真美(下田麻美) - TODAY with ME
TTITLE4=off vocal - ドキッ♥ラブアトラクション (off vocal)
EXTD=
EXTT0=MFCZ-1032
EXTT1=MFCZ-1032
EXTT2=MFCZ-1032
EXTT3=MFCZ-1032
EXTT4=MFCZ-1032
PLAYORDER=
